<?xml version="1.0" encoding="utf-8"?>
<!-- Generator: Adobe Illustrator 21.0.0, SVG Export Plug-In . SVG Version: 6.00 Build 0)  -->
<svg version="1.1" id="圖層_1" xmlns="http://www.w3.org/2000/svg" xmlns:xlink="http://www.w3.org/1999/xlink" x="0px" y="0px"
	 viewBox="0 0 122.7 26.3" style="enable-background:new 0 0 122.7 26.3;" xml:space="preserve">
<style type="text/css">
	.st0{fill:#231815;}
</style>
<g>
	<g>
		<g>
			<path class="st0" d="M18.7,0H7.6C3.4,0,0,3.4,0,7.6l0,0v11.1c0,4.2,3.4,7.6,7.6,7.6l0,0h11.1c4.2,0,7.6-3.4,7.6-7.6l0,0V7.6
				C26.3,3.4,22.9,0,18.7,0L18.7,0z M23.9,18.9c0,2.8-2.2,5-5,5H7.5c-2.8,0-5-2.2-5-5V7.5c0-2.8,2.2-5,5-5h11.4c2.8,0,5,2.2,5,5
				V18.9z"/>
			<path class="st0" d="M13.2,6.4c-3.8,0-6.8,3.1-6.8,6.8c0,3.8,3.1,6.8,6.8,6.8c3.8,0,6.8-3.1,6.8-6.8S16.9,6.4,13.2,6.4L13.2,6.4z
				 M13.2,17.7c-2.4,0-4.4-2-4.4-4.4s2-4.4,4.4-4.4s4.4,2,4.4,4.4C17.6,15.7,15.6,17.7,13.2,17.7L13.2,17.7z"/>
			<circle class="st0" cx="20.2" cy="6.1" r="1.6"/>
		</g>
		<g>
			<path class="st0" d="M44.8,1.5c0.2-0.1,0.5-0.1,0.7,0c0.4,0.1,0.7,0.2,1,0.4c0.2,0.1,0.3,0.3,0.3,0.5v10.2c0.1,1.1,0,2.3-0.1,3.4
				c-0.1,0.9-0.5,1.8-1.1,2.4c-0.2,0.2-0.5,0.4-0.7,0.6c-0.2,0.1-0.5,0.2-0.8,0.2C44,19.1,44,19.1,44,19c0-0.3,0.1-0.5,0.2-0.8
				c0.2-0.9,0.4-1.7,0.4-2.6c0-4.1,0-8.2,0-12.4c0-0.1,0-0.2,0-0.3c-0.2,0-0.3,0.1-0.4,0.2c-0.5,0.5-0.9,1.1-1.2,1.7
				c-0.4,0.8-0.6,1.7-0.7,2.6c-0.1,0.6,0,1.2,0.1,1.7c0.1,0.4,0.3,0.9,0.6,1.2c0.1,0.1,0.2,0.4,0.1,0.5c-0.2,0.2-0.4,0.1-0.6,0
				c-0.6-0.2-1.1-0.6-1.5-1.1c-0.4-0.6-0.7-1.3-0.7-2.1c0.1-0.7,0.2-1.3,0.5-1.9c0.3-0.9,0.9-1.8,1.5-2.5c0.4-0.4,0.9-0.9,1.4-1.2
				C44,1.9,44.4,1.7,44.8,1.5L44.8,1.5z M67.1,1.7c0.2-0.1,0.5-0.2,0.7-0.1C68.2,1.7,68.6,1.8,69,2c0.1,0.1,0.2,0.1,0.3,0.2
				c0,0.9-0.1,1.9-0.1,2.8L72,5.2c0.2,0,0.4,0.1,0.4,0.2c0,0.3,0,0.6-0.1,0.8c-0.1,0.1-0.2,0.3-0.4,0.3l-2.7,0.1
				c-0.1,1.3-0.1,2.6-0.1,3.9c-0.1,1.2-0.1,2.4,0,3.6c0,0.5,0.1,0.9,0.3,1.4c0.1,0.2,0.3,0.3,0.5,0.4c0.3,0,0.5-0.1,0.7-0.3
				c0.3-0.3,0.6-0.6,0.7-1c0.2-0.4,0.4-0.9,0.5-1.3c0-0.2,0-0.4,0-0.6c0-1.1,0.2-2.2,0.6-3.2c0.2-0.8,0.7-1.5,1.3-2
				c0.7-0.6,1.7-0.7,2.5-0.4c0.6,0.2,1,0.6,1.3,1.1c0-0.2,0-0.5,0.1-0.7c0.2-0.2,0.4-0.3,0.7-0.3c0.3,0,0.7,0.1,1,0.3
				c0.2,0.1,0.3,0.3,0.4,0.5c-0.1,2-0.1,4-0.1,5.9c0,0.4,0.1,0.9,0.2,1.3c0,0.3,0.2,0.6,0.4,0.8c0.2,0.2,0.6,0.1,0.8-0.1
				c0.3-0.3,0.6-0.7,0.8-1.1c0.1-0.1,0.1-0.2,0.1-0.4c-0.2-1.2-0.2-2.4,0-3.6c0.1-0.8,0.4-1.5,0.8-2.2s1-1.3,1.8-1.7
				c0.1-0.1,0.3-0.1,0.4-0.2c0.7,0,1.5,0.3,2,0.8C87,7.7,87.2,7.8,87.3,8c0-0.2,0-0.4,0.1-0.7C87.5,7,87.8,7,88,7
				c0.4,0.1,0.8,0.2,1.2,0.4c0.2,0.1,0.2,0.4,0.2,0.6c0,2.2-0.1,4.5-0.1,6.7c0.5-0.7,1-1.5,1.4-2.2c0.5-0.9,0.9-2,1.1-3
				c-0.3-0.2-0.5-0.6-0.6-0.9c-0.1-0.3,0-0.6,0.1-0.9c0.1-0.5,0.5-0.8,0.9-1c0.4-0.1,0.7-0.1,1.1,0.1c0.2,0.1,0.4,0.4,0.4,0.7
				c0,0.3,0,0.5,0,0.8c0.6-0.1,1.2-0.2,1.8-0.3c0.4-0.1,0.8-0.1,1.2,0c0.3,0,0.5,0.2,0.6,0.5c0.1,0.3,0.1,0.6,0,0.9
				c-0.1,0.4-0.2,0.8-0.3,1.2c-0.3,1.1-0.4,2.2-0.3,3.4c0.1,0.5,0.2,1,0.4,1.5c0.1,0.3,0.3,0.5,0.6,0.6c0.3,0,0.6,0,0.8-0.2
				c0.3-0.3,0.6-0.7,0.7-1.2c-0.3-1.2-0.3-2.4-0.1-3.6c0.1-0.9,0.4-1.8,0.8-2.6c0.3-0.6,0.8-1.1,1.4-1.4c0.7-0.4,1.5-0.4,2.2,0
				c0.4,0.2,0.8,0.6,1,1c0-0.2,0-0.5,0.1-0.7c0.2-0.2,0.5-0.3,0.8-0.2c0.4,0,0.8,0.2,1.1,0.5c0.2,0.2,0.1,0.5,0.1,0.7
				c0,1.3-0.1,2.6-0.1,3.9c-0.1,1,0,2,0.2,3c0.1,0.3,0.2,0.5,0.4,0.7c0.2,0.2,0.6,0.2,0.8,0c0.3-0.3,0.5-0.6,0.7-0.9
				c0.2-0.3,0.3-0.6,0.4-0.9V7.4c0-0.2,0.1-0.4,0.2-0.5s0.3,0,0.4,0c0.4,0,0.8,0.1,1.2,0.3c0.1,0.1,0.3,0.2,0.3,0.3v3.2
				c0,0.1,0,0.3,0,0.4c0.3-1,0.7-2,1-2.9c0.1-0.3,0.3-0.7,0.5-1c0.2-0.2,0.5-0.4,0.8-0.3c0.6,0,1.2,0.3,1.5,0.8
				c0.1,0.2,0.2,0.4,0.2,0.6c0,1.1,0.1,2.2,0.1,3.4c0,0.4,0,0.7,0.1,1l0.1-0.1c0.1-0.8,0.3-1.6,0.6-2.4c0.3-0.9,0.6-1.8,0.9-2.6
				c0.1-0.2,0.2-0.4,0.4-0.6c0.3-0.1,0.7-0.1,1,0c0.4,0.1,0.7,0.3,1.1,0.5c0.2,0.2,0.4,0.5,0.4,0.8c-0.1,1.7-0.1,3.5,0,5.2
				c0,0.5,0.1,1,0.2,1.4c0.1,0.3,0.2,0.5,0.3,0.8c0.2,0.2,0.5,0.3,0.7,0.2c0.2-0.1,0.4-0.3,0.5-0.5c0.2-0.5,0.4-1,0.5-1.6
				c0-0.2,0.1-0.3,0.3-0.4c0.1-0.1,0.2,0,0.3,0.1s0.1,0.3,0.1,0.4c0,0.9-0.2,1.7-0.7,2.4c-0.4,0.6-1.1,0.9-1.8,0.9
				c-0.7,0-1.3-0.4-1.6-1c-0.4-0.7-0.7-1.5-0.7-2.3c-0.2-1.6-0.2-3.1-0.1-4.7c-0.1,0-0.1,0.1-0.1,0.2c-0.4,0.9-0.8,1.8-1,2.8
				c-0.3,1.2-0.5,2.5-0.5,3.8c0,0.2-0.1,0.3-0.3,0.3c-0.4,0.2-0.8,0.2-1.1,0c-0.3-0.2-0.6-0.5-0.8-0.8c-0.2-0.4-0.3-0.7-0.3-1.1
				c-0.2-1.6-0.3-3.2-0.4-4.9c0-0.1-0.1,0-0.2,0c-0.8,1.4-1.2,2.9-1.4,4.5c-0.1,0.9-0.2,1.8-0.2,2.8c0,0.2-0.1,0.3-0.2,0.4
				c-0.3,0.1-0.6,0.2-0.9,0.1c-0.4,0-0.7-0.1-1-0.3c-0.1-0.1-0.2-0.2-0.2-0.4c0-0.3,0-0.6-0.1-0.9c-0.1,0.3-0.3,0.5-0.5,0.7
				c-0.3,0.4-0.7,0.7-1.2,0.8c-0.7,0.2-1.4-0.1-1.9-0.6c-0.4-0.4-0.6-1-0.7-1.5c-0.3,0.7-0.9,1.4-1.6,1.8c-0.4,0.2-0.7,0.3-1.2,0.3
				c-0.4,0.1-0.9,0-1.3-0.2c-0.6-0.3-1-0.8-1.3-1.4c-0.3,0.7-0.9,1.3-1.6,1.6c-0.8,0.2-1.6-0.1-2.1-0.6C95,15.9,94.6,15,94.6,14
				c0-0.5,0-0.9,0-1.4c0-1,0.2-2,0.4-3c0-0.1,0-0.1,0-0.2h-1.7c-0.3,0.9-0.7,1.8-1.1,2.7c-0.8,1.5-1.7,2.8-2.8,4.1
				c0,1.2,0.1,2.5,0,3.7c0,1-0.2,1.9-0.6,2.8c-0.3,0.7-0.8,1.2-1.4,1.6c-0.5,0.3-1,0.4-1.6,0.5c-0.7,0-1.4-0.3-1.9-0.7
				c-0.4-0.3-0.6-0.8-0.7-1.2c-0.1-0.4-0.1-0.8,0-1.3c0.3-0.7,0.7-1.4,1.3-2c0.5-0.6,1.2-1.1,1.7-1.7l1.4-1.3c0-0.3,0-0.7-0.1-1
				c-0.2,0.3-0.4,0.6-0.7,0.8c-0.7,0.7-1.6,1-2.6,0.9c-0.6-0.1-1.2-0.5-1.6-1.1c-0.1-0.2-0.3-0.4-0.4-0.6c-0.3,0.7-0.9,1.3-1.6,1.6
				c-0.8,0.2-1.6-0.1-2.1-0.7c-0.3-0.4-0.5-0.9-0.6-1.4c-0.3,0.7-0.8,1.3-1.5,1.7c-0.4,0.3-0.9,0.4-1.4,0.5s-1.1-0.1-1.5-0.4
				c-0.7-0.6-1.2-1.5-1.4-2.4c-0.1,0.4-0.3,0.8-0.5,1.1s-0.4,0.6-0.7,0.9c-0.3,0.3-0.8,0.6-1.2,0.6c-0.5,0.1-1.1-0.1-1.5-0.5
				c-0.3-0.3-0.6-0.7-0.8-1.1c-0.3-0.7-0.5-1.5-0.5-2.3c-0.4,0.9-0.9,1.8-1.6,2.6c-0.6,0.6-1.3,1-2.1,1.2c-0.6,0.1-1.3,0.2-1.9,0.1
				c-0.6,0-1.1-0.2-1.6-0.4c-0.3-0.1-0.4-0.3-0.5-0.6c0-0.3,0.1-0.6,0.3-0.8c0.1-0.2,0.4-0.4,0.6-0.5c0.2-0.1,0.5,0.1,0.6,0.2
				c0.3,0.3,0.6,0.5,1,0.6s0.8,0,1.1-0.4c0.2-0.3,0.3-0.7,0.3-1.1c-0.1-0.7-0.4-1.3-0.9-1.8c-0.4-0.4-0.9-0.8-1.3-1.2
				c-0.6,1.1-1.3,2.2-2,3.3c-0.4,0.7-0.9,1.4-1.5,1.9c-0.4,0.4-1,0.7-1.5,0.8c-0.4,0-0.8-0.1-1-0.4c-0.3-0.4-0.5-0.9-0.5-1.4
				c-0.1-0.9-0.1-1.8-0.1-2.7c0-1.1,0.1-2.2,0.1-3.4c0-0.2,0-0.5,0-0.7c-0.1,0-0.2,0-0.2,0.1c-1,1.3-1.8,2.7-2.3,4.2
				c-0.5,1.3-0.8,2.7-1,4.1c-0.2,0.1-0.4,0.2-0.6,0.1c-0.3,0-0.5,0-0.8-0.1c-0.2-0.1-0.4-0.3-0.5-0.5c-0.2-0.4-0.2-0.9-0.2-1.4
				c0-2.7,0-5.3,0.1-8c0-0.1,0-0.3,0.2-0.3c0.3-0.1,0.6-0.1,0.8,0c0.3,0,0.6,0.2,0.9,0.4c0.1,0.1,0.1,0.3,0.1,0.4v4.4
				c0.4-1.3,1-2.6,1.7-3.8c0.2-0.2,0.4-0.4,0.6-0.7c0.3-0.5,0.9-0.7,1.4-0.8c0.4,0,0.8,0.1,1.2,0.4c0.4,0.2,0.7,0.4,0.8,0.8
				c0.1,0.2,0.1,0.5,0,0.7l-0.1,3.8v1.6c0,0.2,0.1,0.5,0.1,0.7c0,0.1,0.1,0.3,0.3,0.3c0.1,0,0.3-0.1,0.4-0.2
				c0.2-0.2,0.4-0.5,0.6-0.7c0.5-0.7,1-1.5,1.5-2.3c0.3-0.5,0.5-1,0.8-1.5c-0.1-0.1-0.2-0.3-0.3-0.4c-0.3-0.5-0.4-1.1-0.2-1.6
				c0.1-0.5,0.5-1,0.9-1.3c0.3-0.2,0.6-0.4,1-0.4c0.3-0.1,0.7,0,1,0.2c0.2,0.1,0.3,0.4,0.3,0.6c0,0.5-0.1,0.9-0.4,1.3
				C62.3,9,62,9.4,61.7,9.7c1,0.6,1.8,1.3,2.7,2.1c0.4,0.4,0.7,1,0.8,1.6c0,0.3,0,0.6,0,0.9c0.9-0.7,1.5-1.8,1.7-2.9v-5h-2.4
				c-0.1-0.1-0.2-0.3-0.2-0.5c0-0.4,0.1-0.8,0.4-1.1c0-0.1,0.1,0,0.2,0H67c0-0.8,0.1-1.6,0.1-2.4C66.9,2.2,67,1.9,67.1,1.7L67.1,1.7
				z M75.8,8.4c-0.4,0.1-0.8,0.4-1,0.9c-0.3,0.5-0.5,1.1-0.5,1.7c-0.1,0.8-0.1,1.6-0.1,2.4c0,0.6,0.2,1.2,0.4,1.8
				c0.1,0.3,0.4,0.6,0.7,0.7c0.2,0.1,0.5,0.1,0.7,0c0.4-0.2,0.7-0.6,0.9-1c0.4-0.8,0.6-1.6,0.6-2.4c0.1-0.9,0.1-1.8-0.1-2.6
				c-0.1-0.4-0.3-0.8-0.6-1.1C76.5,8.5,76.1,8.4,75.8,8.4L75.8,8.4z M85.7,8.4c-0.5,0.2-1,0.6-1.2,1.1c-0.3,0.8-0.5,1.6-0.6,2.5
				c-0.1,1,0,1.9,0.2,2.9c0.1,0.5,0.4,0.9,0.8,1.1c0.3,0.1,0.6,0.1,0.8-0.1c0.2-0.1,0.4-0.3,0.6-0.5c0.3-0.5,0.6-1,0.7-1.6
				c0.2-0.8,0.3-1.7,0.3-2.6c0-0.6-0.1-1.2-0.2-1.8C87,9,86.8,8.7,86.5,8.5C86.3,8.4,86,8.4,85.7,8.4L85.7,8.4z M102.8,8.5
				c-0.5,0.1-0.9,0.4-1.1,0.9c-0.4,0.8-0.6,1.6-0.6,2.4c-0.1,0.9-0.1,1.9,0.1,2.8c0.1,0.5,0.3,0.9,0.7,1.2c0.2,0.2,0.6,0.3,0.9,0.2
				c0.4-0.2,0.7-0.4,0.9-0.8c0.5-0.8,0.7-1.8,0.8-2.8c0.1-0.9,0.1-1.7-0.1-2.6c-0.1-0.4-0.3-0.8-0.6-1.1
				C103.5,8.5,103.2,8.4,102.8,8.5z M86.8,18.9c-0.9,0.8-1.6,1.8-2.1,2.9c-0.2,0.4-0.2,0.8-0.1,1.3c0.1,0.3,0.3,0.6,0.7,0.7
				c0.4,0.1,0.9,0.1,1.3-0.1c0.3-0.2,0.6-0.6,0.7-1c0.2-0.7,0.3-1.5,0.3-2.2v-2.2C87.3,18.4,87,18.6,86.8,18.9L86.8,18.9z"/>
		</g>
	</g>
</g>
</svg>
